<svg xmlns="http://www.w3.org/2000/svg" xmlns:xlink="http://www.w3.org/1999/xlink" width="1024" zoomAndPan="magnify" viewBox="0 0 768 767.999994" height="1024" preserveAspectRatio="xMidYMid meet" version="1.0"><defs><clipPath id="d99967590d"><path d="M 129 129 L 638 129 L 638 638 L 129 638 Z M 129 129 " clip-rule="nonzero"/></clipPath><clipPath id="4f3600ad10"><path d="M 383.5625 -122.722656 L 889.855469 383.570312 L 383.5625 889.859375 L -122.730469 383.570312 Z M 383.5625 -122.722656 " clip-rule="nonzero"/></clipPath><clipPath id="58488ac5c1"><path d="M 637.324219 133.398438 L 548.410156 377.929688 C 547.085938 381.570312 547.085938 385.566406 548.410156 389.207031 L 637.324219 633.742188 C 637.695312 634.761719 637.441406 635.90625 636.671875 636.675781 C 635.902344 637.445312 634.757812 637.699219 633.734375 637.328125 L 389.199219 548.414062 C 385.558594 547.089844 381.566406 547.089844 377.921875 548.414062 L 133.390625 637.328125 C 132.367188 637.699219 131.222656 637.445312 130.453125 636.675781 C 129.683594 635.90625 129.429688 634.761719 129.800781 633.742188 L 218.714844 389.207031 C 220.039062 385.566406 220.039062 381.570312 218.714844 377.929688 L 129.800781 133.398438 C 129.429688 132.375 129.683594 131.230469 130.453125 130.460938 C 131.222656 129.691406 132.367188 129.4375 133.390625 129.808594 L 377.921875 218.722656 C 381.566406 220.046875 385.558594 220.046875 389.203125 218.722656 L 633.734375 129.808594 C 634.757812 129.4375 635.902344 129.691406 636.671875 130.460938 C 637.441406 131.230469 637.695312 132.375 637.324219 133.398438 " clip-rule="nonzero"/></clipPath><clipPath id="b34a78488d"><path d="M 129 129 L 638 129 L 638 638 L 129 638 Z M 129 129 " clip-rule="nonzero"/></clipPath><clipPath id="ac50589bf8"><path d="M 383.5625 -128.054688 L 894.960938 383.34375 L 383.5625 894.742188 L -127.835938 383.34375 Z M 383.5625 -128.054688 " clip-rule="nonzero"/></clipPath><clipPath id="1058e9b75f"><path d="M 383.5625 -128.054688 L 894.960938 383.34375 L 383.5625 894.742188 L -127.835938 383.34375 Z M 383.5625 -128.054688 " clip-rule="nonzero"/></clipPath><clipPath id="7071e1bf85"><path d="M 637.210938 133.28125 L 548.335938 377.707031 C 547.011719 381.347656 547.011719 385.339844 548.335938 388.980469 L 637.210938 633.40625 C 637.582031 634.429688 637.328125 635.574219 636.558594 636.34375 C 635.792969 637.109375 634.648438 637.367188 633.625 636.992188 L 389.199219 548.117188 C 385.558594 546.796875 381.566406 546.796875 377.925781 548.117188 L 133.5 636.992188 C 132.476562 637.367188 131.332031 637.109375 130.5625 636.34375 C 129.796875 635.574219 129.542969 634.429688 129.914062 633.40625 L 218.789062 388.980469 C 220.113281 385.339844 220.113281 381.347656 218.789062 377.707031 L 129.914062 133.28125 C 129.542969 132.261719 129.796875 131.117188 130.5625 130.347656 C 131.332031 129.578125 132.476562 129.324219 133.5 129.695312 L 377.925781 218.570312 C 381.566406 219.894531 385.558594 219.894531 389.199219 218.570312 L 633.625 129.695312 C 634.648438 129.324219 635.792969 129.578125 636.558594 130.347656 C 637.328125 131.117188 637.582031 132.261719 637.210938 133.28125 " clip-rule="nonzero"/></clipPath><clipPath id="9ef425adec"><path d="M 1.648438 1.648438 L 765.484375 1.648438 L 765.484375 765.484375 L 1.648438 765.484375 Z M 1.648438 1.648438 " clip-rule="nonzero"/></clipPath><clipPath id="03791d8f21"><path d="M 386.105469 3.46875 L 503.703125 255.453125 C 505.34375 258.964844 508.167969 261.789062 511.679688 263.429688 L 763.664062 381.027344 C 764.648438 381.488281 765.28125 382.480469 765.28125 383.566406 C 765.28125 384.65625 764.648438 385.644531 763.664062 386.105469 L 511.679688 503.703125 C 508.167969 505.34375 505.34375 508.167969 503.703125 511.679688 L 386.105469 763.664062 C 385.644531 764.648438 384.65625 765.28125 383.566406 765.28125 C 382.480469 765.28125 381.488281 764.648438 381.027344 763.664062 L 263.429688 511.679688 C 261.789062 508.167969 258.964844 505.34375 255.453125 503.703125 L 3.46875 386.105469 C 2.484375 385.644531 1.855469 384.65625 1.855469 383.566406 C 1.855469 382.480469 2.484375 381.488281 3.46875 381.027344 L 255.453125 263.429688 C 258.964844 261.789062 261.789062 258.964844 263.429688 255.453125 L 381.027344 3.46875 C 381.488281 2.484375 382.480469 1.855469 383.566406 1.855469 C 384.65625 1.855469 385.644531 2.484375 386.105469 3.46875 " clip-rule="nonzero"/></clipPath><clipPath id="2cd5a37f21"><path d="M 1 1 L 766 1 L 766 766 L 1 766 Z M 1 1 " clip-rule="nonzero"/></clipPath><clipPath id="e4f3933665"><path d="M 386.085938 3.46875 L 503.683594 255.441406 C 505.324219 258.953125 508.144531 261.777344 511.65625 263.417969 L 763.632812 381.011719 C 764.617188 381.472656 765.246094 382.460938 765.246094 383.550781 C 765.246094 384.636719 764.617188 385.628906 763.632812 386.085938 L 511.65625 503.683594 C 508.144531 505.324219 505.324219 508.144531 503.683594 511.65625 L 386.085938 763.632812 C 385.628906 764.617188 384.636719 765.246094 383.550781 765.246094 C 382.460938 765.246094 381.472656 764.617188 381.011719 763.632812 L 263.417969 511.65625 C 261.777344 508.144531 258.953125 505.324219 255.441406 503.683594 L 3.46875 386.085938 C 2.484375 385.628906 1.855469 384.636719 1.855469 383.550781 C 1.855469 382.460938 2.484375 381.472656 3.46875 381.011719 L 255.441406 263.417969 C 258.953125 261.777344 261.777344 258.953125 263.417969 255.441406 L 381.011719 3.46875 C 381.472656 2.484375 382.460938 1.855469 383.550781 1.855469 C 384.636719 1.855469 385.628906 2.484375 386.085938 3.46875 " clip-rule="nonzero"/></clipPath><clipPath id="78a08f89f3"><path d="M 233.765625 233.765625 L 533.367188 233.765625 L 533.367188 533.367188 L 233.765625 533.367188 Z M 233.765625 233.765625 " clip-rule="nonzero"/></clipPath><clipPath id="c021df9fcf"><path d="M 386.105469 235.609375 L 429.839844 329.320312 C 431.476562 332.832031 434.300781 335.65625 437.8125 337.292969 L 531.523438 381.027344 C 532.511719 381.488281 533.140625 382.480469 533.140625 383.566406 C 533.140625 384.65625 532.511719 385.644531 531.523438 386.105469 L 437.8125 429.839844 C 434.300781 431.476562 431.476562 434.300781 429.839844 437.8125 L 386.105469 531.523438 C 385.644531 532.511719 384.65625 533.140625 383.566406 533.140625 C 382.480469 533.140625 381.488281 532.511719 381.027344 531.523438 L 337.292969 437.8125 C 335.65625 434.300781 332.832031 431.476562 329.320312 429.839844 L 235.609375 386.105469 C 234.621094 385.644531 233.992188 384.65625 233.992188 383.566406 C 233.992188 382.480469 234.621094 381.488281 235.609375 381.027344 L 329.320312 337.292969 C 332.832031 335.65625 335.65625 332.832031 337.292969 329.320312 L 381.027344 235.609375 C 381.488281 234.621094 382.480469 233.992188 383.566406 233.992188 C 384.65625 233.992188 385.644531 234.621094 386.105469 235.609375 " clip-rule="nonzero"/></clipPath><clipPath id="6ace2c215f"><path d="M 233 233 L 533 233 L 533 533 L 233 533 Z M 233 233 " clip-rule="nonzero"/></clipPath><clipPath id="8afac061d7"><path d="M 386.003906 235.605469 L 429.710938 329.253906 C 431.347656 332.765625 434.167969 335.585938 437.679688 337.226562 L 531.332031 380.929688 C 532.316406 381.390625 532.945312 382.378906 532.945312 383.46875 C 532.945312 384.554688 532.316406 385.542969 531.332031 386.003906 L 437.679688 429.710938 C 434.167969 431.347656 431.347656 434.167969 429.710938 437.679688 L 386.003906 531.332031 C 385.542969 532.316406 384.554688 532.945312 383.46875 532.945312 C 382.378906 532.945312 381.390625 532.316406 380.929688 531.332031 L 337.226562 437.679688 C 335.585938 434.167969 332.765625 431.347656 329.253906 429.710938 L 235.605469 386.003906 C 234.621094 385.542969 233.988281 384.554688 233.988281 383.46875 C 233.988281 382.378906 234.621094 381.390625 235.605469 380.929688 L 329.253906 337.226562 C 332.765625 335.585938 335.585938 332.765625 337.226562 329.253906 L 380.929688 235.605469 C 381.390625 234.621094 382.378906 233.988281 383.46875 233.988281 C 384.554688 233.988281 385.542969 234.621094 386.003906 235.605469 " clip-rule="nonzero"/></clipPath></defs><g clip-path="url(#d99967590d)"><g clip-path="url(#4f3600ad10)"><g clip-path="url(#58488ac5c1)"><path fill="#004852" d="M 383.5625 -128.054688 L 895.183594 383.570312 L 383.5625 895.191406 L -128.058594 383.570312 Z M 383.5625 -128.054688 " fill-opacity="1" fill-rule="nonzero"/></g></g></g><g clip-path="url(#b34a78488d)"><g clip-path="url(#ac50589bf8)"><g clip-path="url(#1058e9b75f)"><g clip-path="url(#7071e1bf85)"><path stroke-linecap="butt" transform="matrix(0.53639, 0.53639, -0.53639, 0.53639, 383.562346, -128.052938)" fill="none" stroke-linejoin="miter" d="M 480.0453 7.164191 L 625.0432 317.853169 C 627.202456 322.481188 630.923806 326.202537 635.551824 328.361794 L 946.240803 473.359693 C 947.540726 473.967781 948.370929 475.271345 948.370929 476.705995 C 948.37457 478.137003 947.544367 479.440568 946.240803 480.045014 L 635.551824 625.042914 C 630.927447 627.205811 627.206098 630.927161 625.0432 635.551538 L 480.0453 946.240516 C 479.440854 947.544081 478.137289 948.374284 476.70264 948.374284 C 475.271632 948.370643 473.968067 947.54044 473.35998 946.240516 L 328.36208 635.551538 C 326.202823 630.923519 322.481474 627.20217 317.853455 625.042914 L 7.164477 480.045014 C 5.868195 479.440568 5.037992 478.137003 5.034351 476.705995 C 5.034351 475.271345 5.864554 473.967781 7.164477 473.359693 L 317.853455 328.361794 C 322.481474 326.202537 326.202823 322.481188 328.36208 317.853169 L 473.35998 7.164191 C 473.968067 5.864267 475.271632 5.034064 476.70264 5.037705 C 478.137289 5.037705 479.440854 5.867909 480.0453 7.164191 " stroke="#000000" stroke-width="33.601574" stroke-opacity="1" stroke-miterlimit="4"/></g></g></g></g><g clip-path="url(#9ef425adec)"><g clip-path="url(#03791d8f21)"><rect x="-76.8" width="921.6" fill="#0c6a41" y="-76.799999" height="921.599993" fill-opacity="1"/></g></g><g clip-path="url(#2cd5a37f21)"><g clip-path="url(#e4f3933665)"><path stroke-linecap="butt" transform="matrix(0.75887, 0, 0, 0.75887, -1.96738, -1.967363)" fill="none" stroke-linejoin="miter" d="M 511.357018 7.163434 L 666.321256 339.200245 C 668.483189 343.82781 672.199654 347.549423 676.827219 349.711355 L 1008.869178 504.670447 C 1010.166337 505.277847 1010.995078 506.580154 1010.995078 508.016295 C 1010.995078 509.447288 1010.166337 510.754742 1008.869178 511.356995 L 676.827219 666.321234 C 672.199654 668.483166 668.483189 672.199631 666.321256 676.827196 L 511.357018 1008.869155 C 510.754765 1010.166315 509.44731 1010.995056 508.016317 1010.995056 C 506.580176 1010.995056 505.277869 1010.166315 504.670469 1008.869155 L 349.711378 676.827196 C 347.549445 672.199631 343.827833 668.483166 339.200268 666.321234 L 7.163456 511.356995 C 5.866297 510.754742 5.037556 509.447288 5.037556 508.016295 C 5.037556 506.580154 5.866297 505.277847 7.163456 504.670447 L 339.200268 349.711355 C 343.827833 347.549423 347.549445 343.82781 349.711378 339.200245 L 504.670469 7.163434 C 505.277869 5.866274 506.580176 5.037534 508.016317 5.037534 C 509.44731 5.037534 510.754765 5.866274 511.357018 7.163434 " stroke="#000000" stroke-width="33.601574" stroke-opacity="1" stroke-miterlimit="4"/></g></g><g clip-path="url(#78a08f89f3)"><g clip-path="url(#c021df9fcf)"><path fill="#e3cc35" d="M 230.171875 230.171875 L 536.960938 230.171875 L 536.960938 536.960938 L 230.171875 536.960938 Z M 230.171875 230.171875 " fill-opacity="1" fill-rule="nonzero"/></g></g><g clip-path="url(#6ace2c215f)"><g clip-path="url(#8afac061d7)"><path stroke-linecap="butt" transform="matrix(0.758424, 0, 0, 0.758424, 230.170964, 230.170981)" fill="none" stroke-linejoin="miter" d="M 205.469498 7.165503 L 263.098275 130.64323 C 265.256328 135.273516 268.974978 138.992166 273.605264 141.15537 L 397.088142 198.778996 C 398.386064 199.386753 399.215292 200.689826 399.215292 202.126811 C 399.215292 203.558646 398.386064 204.861719 397.088142 205.469476 L 273.605264 263.098253 C 268.974978 265.256306 265.256328 268.974956 263.098275 273.605242 L 205.469498 397.08812 C 204.861741 398.386042 203.558668 399.21527 202.126834 399.21527 C 200.689848 399.21527 199.386776 398.386042 198.779018 397.08812 L 141.155392 273.605242 C 138.992189 268.974956 135.273538 265.256306 130.643252 263.098253 L 7.165525 205.469476 C 5.867603 204.861719 5.033224 203.558646 5.033224 202.126811 C 5.033224 200.689826 5.867603 199.386753 7.165525 198.778996 L 130.643252 141.15537 C 135.273538 138.992166 138.992189 135.273516 141.155392 130.64323 L 198.779018 7.165503 C 199.386776 5.867581 200.689848 5.033202 202.126834 5.033202 C 203.558668 5.033202 204.861741 5.867581 205.469498 7.165503 " stroke="#000000" stroke-width="33.601574" stroke-opacity="1" stroke-miterlimit="4"/></g></g></svg>